<?xml version="1.0" encoding="utf-8"?>
<!-- Generator: Adobe Illustrator 21.0.2, SVG Export Plug-In . SVG Version: 6.00 Build 0)  -->
<svg version="1.1" id="Layer_1" xmlns="http://www.w3.org/2000/svg" xmlns:xlink="http://www.w3.org/1999/xlink" x="0px" y="0px"
	 viewBox="0 0 528 274" style="enable-background:new 0 0 528 274;" xml:space="preserve">
<style type="text/css">
	.st0{fill:#967BB6;}
</style>
<g>
	<g>
		<path class="st0" d="M517.1,142c3,0,5.7,1.2,7.7,3.2s3.2,4.7,3.2,7.7s-1.2,5.7-3.2,7.7s-4.7,3.2-7.7,3.2s-5.7-1.2-7.7-3.2
			s-3.2-4.7-3.2-7.7s1.2-5.7,3.2-7.7C511.4,143.2,514.1,142,517.1,142L517.1,142z M524,145.9c-1.8-1.8-4.2-2.9-6.9-2.9
			s-5.1,1.1-6.9,2.9c-1.8,1.8-2.9,4.2-2.9,6.9s1.1,5.1,2.9,6.9c1.8,1.8,4.2,2.9,6.9,2.9s5.1-1.1,6.9-2.9c1.8-1.8,2.9-4.2,2.9-6.9
			C526.9,150.1,525.8,147.7,524,145.9L524,145.9z"/>
		<g>
			<path class="st0" d="M516.7,153.9h-2v4h-1.3v-10.1h4.1c1.9,0,3.2,1.2,3.2,3.1c0,1.8-1.2,2.8-2.6,2.9l2.7,4.1h-1.5L516.7,153.9z
				 M517.4,148.9h-2.7v3.9h2.7c1.2,0,2-0.8,2-1.9S518.6,148.9,517.4,148.9z"/>
		</g>
	</g>
	<g>
		<path class="st0" d="M106.8,158.9c-4.9-5.9-12.9-12.2-16.8-19.6c-2.4-4.6-6.5-13.4-6.5-14V124c0.3,0,0.5-0.3,0.7-0.3
			c1.8,2.3,3.9,5.1,5.4,7.1c5.8,7.5,15.4,13.5,19.7,20.8c-5.4-11.6-10.4-23.8-17-35.3c-0.1,0.2-0.4,0.7-0.9,0.7
			c-0.1,0-11-4.8-11-5.3c0-0.6,0.6-1.5,0.6-2.1s-0.8-1.1-0.8-1.8c0-0.6,0.2-1,0.2-1.3c0.7,0,1.2-0.3,1.7-0.3s4.7,1.8,5.2,1.8
			s0.2,0,0.4-0.1c-3-7.8-9.7-7.4-14.6-9.8V97c2.1-1,0.2-3.8,2.2-3.8c0.5,0,2.9,0.5,4.3,1.1C78,88,71.5,88.4,68,86.5
			c-0.5-1.1-0.3-2.6-1.5-4.2v-1.4c0.5-0.3,0.8-0.3,1.3-0.3s2.6,0.8,3.2,0.8c0.5,0,0.4,0,0.6-0.1c-1.2-1.7-2.2-3.2-3.1-4.4
			c-0.3,0.2-1,0.5-1.5,0.5c-0.4,0-6.5-1.1-6.5-2.9c0-0.3,1.6-3.9,1.7-3.9c0.5,0,3.8,1,5.6,1.8c2.1-3.7,2.7-5.5,4.2-5.5
			c0.5,0,1.3,0.8,1.3,1.5c0,0.6-2.3,6.7-2.3,7.3c0,1,3.3,4.9,4.7,6.2c0.3-0.8,0.1-4,1.8-4c0.8,0,1.8,1,3,1.1c0,0.3,0.2,0.3,0.2,1
			c0,0.6-1.7,6.1-1.7,6.7c0,0.7,3.4,6.3,3.9,7c0.7-1.2,0.9-5,2.3-5c0.8,0,3.2,0.1,3.1,2.3c0,0.6-2.3,8.1-2.3,8.7s3.4,5.8,4.9,8.5
			c0.4-0.9,2.5-8.7,3.8-8.7c0.8,0,1.5,1.6,1.7,2.2c-0.3,0.1-0.4,0.2-0.4,0.2c0.4,0.3,2,0.4,2,1.5c0,1.4-4.4,9.6-4.4,9.7
			c0,1.6,9.4,19.8,13.1,27.2c5.4,11,9.8,21.9,14.7,32.8C159.1,272.7,118.6,173.3,106.8,158.9L106.8,158.9z"/>
		<g>
			<path class="st0" d="M194.5,73.7c0.9,0.5,1.7,1,2.5,1.6c1.1-3.1,2.1-6.1,3.1-9.1c3.4,0.8,8.4,1.4,9,1.4s1.3-0.3,1.8-0.3
				c0.3-0.9-0.2-2.1,0.1-3.2c0.2-0.7,0.8-1,0.8-1.7c0-2.6-8.4-1.7-9.7-1.8l-0.4-0.5l3.1-8.3c1.5,1.4,6.7,1.7,6.7,1.7
				c0.8,0,3.4-1,4.1-1.5c0-0.4-0.2-1-0.7-1.5c0.4-0.2,0.8-0.2,1.3-0.2c0.3-0.6,0.5-1.7,0.5-2.4s-0.8-1.3-1.4-1.3l-6.2,0.9
				c-0.6,0-1.7-0.3-2.6-0.3c-0.2-0.2-0.4,0.1-0.4-0.6c0-0.7,2-6.5,3.1-9.6c1.1,0.3,2.7,0.6,3.3,0.6c0.8,0,6.7-0.2,6.6-2.1
				c0-0.7-0.5-1-0.5-1.7s0.5-0.4,0.5-1.1c0-2-1.3-2.4-2.1-2.4c-0.6,0-3.3,0.6-6.2,0.9c0.9-3.5,2-6.9,3.3-10.2
				c0.6,0.5,1.4,0.6,1.9,0.6c1.1,0,6.4-1.3,6.4-3.1c0-2.4-1.6-4.2-3-4.2c-0.6,0-2.4,0.3-3.5,0.6c-0.2-0.2-0.1,0.1-0.2-0.6
				c0-0.1,1.1-5.4,1.1-7.4c0-1.3,5.1-2.4,6.6-3.3V2.3c-0.9-0.9-2.3-2.3-2.9-2.3c-1.7,0-2.3,2.3-3.9,3.9c-0.6-1.1-1.8-2.8-3-4.2
				c-0.7,0.9-1.2,1.8-1.2,2.7c0,1.5,0.9,2.7,3,4.5c-1.1,1.6-1.5,4.3-2.2,6.3c-1-1.1-2.2-5.3-4-5.3c-1.1,0-3.7,3-3.7,3.1
				c0,2.5,5.1,7.8,5.1,10.5c0,0.7-1.3,5-2.2,7.4c-0.4-0.8-2.1-4.8-3.3-4.8c-1,0-1.6,1.3-1.4,2.6c-0.3,0.2-2.1,0.6-2.1,1.6
				c0,0.7,4.2,8.7,4.2,9.4c0,0.7-1.3,4.4-2.2,6.9c-1-1.9-2.4-4.2-4.1-6.4H198c-0.3,0.3-0.5,0.4-0.5,1.1c0,0.7,0.9,1.9,1.4,2.6
				c-0.4,0.3-2.3,0.1-2.3,1.7c0,1,4.2,9.1,4.2,9.2c0,0.7-1.1,3.6-1.7,5.5c-1.4-1.8-2.5-6.2-4.5-6.2c-0.6,0-1.1,0.8-1.1,1.5
				s0.7,1.7,0.9,2.5c-0.8,0.8-2.5,0.4-2.5,1.9c0,1.2,4.2,8.9,4.4,9.1L194.5,73.7z"/>
			<path class="st0" d="M190.1,86.2l-7.3,21c-45.6,108.5-13.1,42.1,9.1-18C191.4,88.1,190.8,87.1,190.1,86.2z"/>
		</g>
		<path class="st0" d="M154,42.2L154,42.2c0,1-4,9.2-4,9.3c0,0.5,0.3,2.6,0.6,3.8c0.5-0.4,3-5.3,3.7-5.3c0.6,0,2.3,1.1,2.3,2.3
			c0,0.6-3.9,8.5-5.1,9.6c0.4,2.3,0.5,4.7,1.1,7c0.7-1,3.2-6.2,4.2-6.2c0.3,0,2.1,1.3,2.1,2.3c0,1.7-6,9.2-6,11.6
			c0,1.3,0.5,4.6,0.9,5.4c1.9-3,3.8-6.9,5.4-9c0.6,0.5,0.7,1.1,1.2,1.3c0.3-0.4,0.3-0.9,0.7-0.9c0.5,0,1.1,0.4,1.1,1.3
			s-2,3.6-2.3,4.2c-0.4,0.7-6.4,9.7-6.4,12c-0.1,4.8-2.3,22.6-2.7,47.2l-2.3,25.4c0,0.5,0.1,0.6,0.2,0.8c2.1-9.1,9.1-32.4,9.1-33.7
			c0-0.5-3.1-6.7-3.1-7.3c0-0.1,1.7-3.6,1.7-3.6c1.3,0,1.9,3.2,3.3,4.1c0.3-0.8,0.9-2.3,0.9-2.8c0-1.1-3.9-6.8-3.9-7.7
			c0-0.5,0.6-1.6,1.4-1.6c0.4,0,0.7,0.5,0.8,0.9h0.4c0.1-0.4,0.4-0.9,0.9-0.9c1,0,1.3,1.5,1.8,2.2h0.5c0.3-0.6,0.5-1.3,0.5-1.8
			c0-2.5-2.6-4.6-2.5-6.6c0-0.5,0.9-1.4,0.9-1.9s-0.9-0.9-0.9-1.4s0-0.6-0.2-0.9c0.6-0.7,1.2-1.2,1.6-1.2c0.1,0,1.9,1.4,1.9,2.1
			c0,0,0.1,2,1.1,2.1c0.4,0,0.6-0.2,1-0.5c-0.8-2.1-2.5-5.9-2.5-6.5c0-0.5,0.5-0.7,0.6-1.3c0-0.5-0.3-0.5-0.3-1.1
			c0-0.9,1-1.6,1.5-1.6c0.4,0,1.8,3.1,2.4,4.3c0.5-0.5,0.1-1.2,0.1-1.9c1.6-0.9,4.5-1.9,4.9-1.9c0.2,0,1.7,1.1,1.7,2.3
			c0,1.9-5.3,1.3-5.4,4.4c0,0.5,0.3,1.7,0.3,2.5c1-0.4,2.7-1.1,3.1-1c0,0,1.1-0.1,1.1,1.1c0,0.9-2.1,1.5-2.5,1.8
			c0.3,0.1,1,0.7,1,1.2c0,2.4-6.9-0.6-7,6.6c0,0.5,0,0.2,0.1,0.4c1.4-0.4,3.9-1.4,4.3-1.4c0.4,0,1.4,0.2,1.4,1.6
			c0,0.5-0.5,0.3-0.5,0.9c0,0.5,0.3,0.8,0.5,1.8c-3.4,2.5-9.3,0.3-8.7,7.3c0.2,0.2,0.3,0.2,0.4,0.2c1.6-0.6,4.5-1.9,5-1.9
			c0.8,0,1,1.4,1.2,2.4c0.3,0.2,0.6,0.9,0.8,1.4c-2.2,1.8-4.3,2-6.4,2.7c-0.6,0.2-2.4,0.1-2.7,1c-1.8,5.4-4.9,15.9-4.9,16.5
			c0,1.9-4.9,19.9-5.8,25.1c-0.4,2.5-0.7,5.2-1.2,7.8c-8.8,59.6-19.7-28.6-26.4-52.3c-0.1,0.2-0.3,0.4-0.7,0.4
			c-0.7,0-7.9-6.8-7.9-6.9c0-0.6,0.7-1.5,1.4-1.9c-0.5-0.3-1-0.8-1.4-1.3v-1c0.4-0.2,0.5-0.7,1-0.7c0.4,0,3.4,2,4.8,3.1l0.1-0.8
			c-0.5-1.5-1-3-1.4-4.2c-0.3,0.4-0.5,0.9-1,0.8c-0.6,0-6.8-4.6-6.8-5.5c0-0.7,0.1-0.8,1.1-1.6c-0.3-0.7-0.1-1.6,0.6-1.6
			c0.4,0,3.5,2.4,3.9,2.4s0.2,0,0.4-0.1c-0.1-6.7-8.2-4-8.1-11.5c0-0.5,0.2-0.7,0.4-1c0.2,0,0.1-0.2,0.6-0.2c0.4,0,2.3,1.5,2.7,1.5
			c0.4,0,0.2,0,0.4-0.1c-0.3-1.3-2.4-3.1-2.4-3.2c0-0.5,0.4-1.1,0.6-1.4l-1-0.2c-0.1,0-2.4-0.2-2.3-1.7c0-0.5,0.2-0.9,0.2-1.1
			c0.4,0,0.2-0.2,0.6-0.2s1.5,0.7,1.9,0.7c0.2,0,1-3.6,2.1-3.6c0.4,0,1.9,1.1,2.8,1.1v1.2c0,0.5-1.3,2.8-2.2,4.2
			c1.2,1.4,1.2,3.2,2.3,3.8c1-1.5,0.9-2.4,1.8-2.3c0.4,0,0.5,0.4,1,0.4c0.4,0,0.4-0.4,0.9-0.4c0.1,0,0.9,0.3,0.9,1.3
			c0,0.5-2.9,5.9-2.9,6.4s1.2,3.3,1.8,5c0.8-1,1.7-4.1,2.7-4c0.6,0,1.2,1.3,1.1,2.2c0.5,0.2,1.2,0.9,1.2,1.5c0,1.1-3.4,5.1-3.4,5.6
			s1.2,3.8,1.8,5.5c0.2-0.4,2.7-5.1,3.2-5.1c0.6,0,2.2,2.6,2.2,3.2c0,2-2.9,5.6-3.8,7.1l14,51c0.6,2.4,4.3,27,4.5,13.9
			c0.1-5.1-2.5-11.1-2.4-12.3c0-0.2-2.4-12.7-2.4-15.1c0-0.5-0.9-8.2-0.9-12.1c0-8.4,0.5-11.5,0.5-12s-1.6-10.7-1.6-11.2
			c0-1.9-2.6-15.6-3-17.4c-0.5,0-6.7-4.5-6.6-5.7c0-0.5,0.2-1,0.5-1.4c-0.3-0.4-0.7-0.9-0.7-1.4s0.2-0.8,0.4-1.3
			c0.2,0,0.1-0.2,0.6-0.2c0.8,0,4,2.6,4,2.6c0.4,0,0.3-0.1,0.3-0.1c-0.3-1.7-0.8-3.6-1.3-5.2c-0.1,0.2-0.2,0.4-0.6,0.4
			c-0.6,0-6.8-5.8-6.8-5.9c0-0.4,0.5-1.5,1.3-1.7c-0.2-1.2,0.3-2,1.1-2c0.4,0,2.2,1.3,3.2,2c0.1-0.2,0.1-0.3,0.1-0.3
			c-0.5-1.7-1-3.4-1.4-4.6c-0.3,0.4-0.4,0.4-0.9,0.4c-0.2,0-8.3-6-8.3-6.1c0-1.5,1.2-1,2-1.5c-0.2-0.7,0.4-1.8,1-1.8
			c0.4,0,3.2,1.6,4.4,2.4c0.8-6.1-6.9-5.7-7.6-9.9c-0.5-0.4-1.2-1.3-1.2-1.8c0-0.3,0.6-1.6,1.2-1.6c0.4,0,2.8,1.6,4.2,2.4
			c0.2-1.6-1-3.4-0.9-5c0-0.1,0.5-1.4,1-1.7c0.7,1.8,1.2,3.5,1.8,5c0.3-0.6,0.9-2.8,2.1-2.8c0.4,0,0.8,0.7,1.2,0.7
			c0.4,0,0.7-0.6,1.2-0.6c0.4,0,0.7,0.2,1.1,0.5V62c-1.3,2.2-3.6,6.4-3.6,6.9s1,3.3,1.6,5c1-1.4,1.6-4.3,3-4.3
			c0.4,0,2.3,2.4,2.3,2.9c-0.1,3.5-4,5.4-4,7.4c0,0.8,1.5,6.1,1.9,6.7c0.2-0.3,3.3-5.5,3.9-5.5c0.7,0,2.6,2.3,2.8,3l-5.4,8.6
			c0.5,1.8,1.1,4.4,1.8,6c1.1-1.3,1.7-3,2.8-3c0.1,0,0.9,0.3,0.9,1.3c0,0.5-0.2,0.8-0.4,0.9c0.4-0.1,0.6-0.3,1.1-0.3
			c0.4,0,1,0.5,1.4,0.7V99c-1.3,2.2-3.1,4.5-4.7,6.5l4.3,22c0.2-0.9,1.8-8.5,1.8-10.8c0-0.5,0.2-3.2,0.2-3.8c0-0.5-0.3-3.6-0.3-4.1
			s0.2-1.2,0.4-1.7h0.6c1.2,1.6,0.9,3.6,1.2,5.7c-0.2,4.5-0.1,4.7-0.1,5l-2.8,20.6c0.6,5.2,3.6,26.7,3.6,28.9c-0.1,4,1,17,1,18.6
			c0.4-1.1,1.4-7.8,1.4-8.6l3.3-33.7l3.2-53.4c-0.8-7.5-6.4-5.8-6.4-8.3c0-0.5,0.4-1.1,0.6-1.5c-0.9-0.8-1.4-0.6-1.4-1.7
			c0-0.4,0.3-1.3,1-1.3c0.4,0,4.9,2.7,5.3,2.7c0.4,0,0.2,0,0.4-0.1v-1.9c0.1-7.2-7-5-6.9-7.9c0-0.8,1.8-3.7,2.2-3.7s2.6,1.3,3.7,2
			c0.1-0.2,0.1-0.4,0.3-0.6c-0.3-1.9-0.5-3.8-0.8-5.8c-0.8-1.7-6.1-2.6-6.1-3.7c0-0.4,1.8-3.4,2.1-3.4c0.4,0,1.9,0.9,2.9,1.3
			l0.3-0.4c-0.2-1.5-0.5-3.2-0.6-4.6c-1.9-0.5-6.8-5.8-6.8-6.6c0-0.5,0-0.7,0.2-1c0.2,0,0.1-0.2,0.6-0.2c0.4,0,3.2,1.6,4.9,2.2
			c0.5-0.8,1-1.1,1.5-1.7c0.7-0.7,2.3-5.4,3-5.4C151.9,39.1,154,42.1,154,42.2L154,42.2z"/>
		<path class="st0" d="M193.9,101.9c-12.3,58.4-26.6,61.1-48.3,100.6l-11,20.3c-10-49.6-62.2-193.2,7.8-27.9
			c0,0,25.6-48.8,33.1-63.8C182.5,117.1,193.9,101.9,193.9,101.9z"/>
	</g>
	<g>
		<path class="st0" d="M0,155h8.3v59.4h31v7.4H0V155z"/>
		<path class="st0" d="M95.6,207H61.8l-5.9,14.8h-9.2L73.5,155h10.3l26.9,66.8h-9.2L95.6,207z M64.2,199.6h28.9l-14.4-37.1
			L64.2,199.6z"/>
		<path class="st0" d="M184.9,155h43.8v7.4h-35.4V184H228v7.4h-34.7v23h35.4v7.4h-43.8L184.9,155L184.9,155z"/>
		<path class="st0" d="M252.7,167.9v53.9h-8.3V155h8.5l38.4,52.8V155h8.3v66.8h-8L252.7,167.9z"/>
		<path class="st0" d="M317.8,155h22.8c20.7,0,34.2,14.5,34.2,33.4c0,19-13.5,33.3-34.2,33.3h-22.8V155z M340.7,214.4
			c16.2,0,25.6-11.6,25.6-25.9c0-14.4-9.1-26-25.6-26h-14.5v52h14.5V214.4z"/>
		<path class="st0" d="M390.4,155h43.8v7.4h-35.4V184h34.7v7.4h-34.7v23h35.4v7.4h-43.8V155z"/>
		<path class="st0" d="M471.5,195.3h-13.3v26.5h-8.3V155h26.8c12.2,0,20.9,7.8,20.9,20.1c0,12-8.2,18.6-17.3,19.4l18,27.2h-9.8
			L471.5,195.3z M475.7,162.4h-17.5V188h17.5c7.9,0,13.3-5.3,13.3-12.8S483.6,162.4,475.7,162.4z"/>
	</g>
	<g>
		<g>
			<g>
				<path class="st0" d="M250.2,141.8l2.4-9.8l4.4-22c1.5-7.7,4.4-13.7,8.6-17.9c4.2-4.3,9.4-6.4,15.5-6.4c2.1,0,4,0.2,5.7,0.7
					l-4.4,4.6c-2.5-1.1-4.6-1.7-6.4-1.7c-3.4,0-5.9,1.2-7.6,3.7s-3.2,7.1-4.6,14l-3.4,17.3h0.5c2.6-5.4,5.6-9.8,9-13.1
					c3.4-3.3,6.5-5,9.3-5c3.5,0,5.3,1.9,5.3,5.8c0,1.3-0.2,2.8-0.5,4.6l-3.1,15.5c-0.5,2.4-0.7,4-0.7,4.8c0,1.3,0.6,2,1.9,2
					c2.1,0,5.3-2.3,9.5-7l-0.6,3c-4.7,5-8.8,7.5-12.5,7.5c-3.1,0-4.6-1.6-4.6-4.8c0-1.1,0.2-2.9,0.7-5.4l3.1-15.6
					c0.2-1.2,0.4-2.2,0.4-3.1c0-1.7-0.6-2.6-1.9-2.6c-4,0-9.7,6.4-16.9,19.3l-2.3,11.4L250.2,141.8z"/>
				<path class="st0" d="M308.3,131.8l-0.6,3c-4.6,5-8.8,7.5-12.5,7.5c-3.1,0-4.6-1.6-4.6-4.8c0-1.1,0.2-2.9,0.7-5.3l2.2-11.1
					c0.6-3.1,0.9-5.2,0.9-6.3c0-1.8-0.7-2.7-2.1-2.7c-1,0-2.7,0.4-5.1,1.1l0.4-1.9l15.6-5.1l-2.4,10.2l-3.1,15.7
					c-0.5,2.5-0.7,4-0.7,4.7c0,1.4,0.6,2.1,1.9,2.1C300.9,138.8,304,136.5,308.3,131.8z M296.6,100.6l2.1-4.3l9-5.9l-2.7,5.9
					L296.6,100.6z"/>
				<path class="st0" d="M312.6,109.2h-7.3l2.2-2.4h5.5l1.8-9l6.6-1.6l-2.1,10.6h12l-2.6,2.8c-2.7-0.3-5.2-0.4-7.3-0.4h-2.6
					l-4.3,21.8c-0.4,2.2-0.7,3.8-0.7,4.7c0,1.7,0.7,2.5,2.2,2.5c2.3,0,5.4-1.7,9.4-5.1l-0.6,2.9c-4.1,4.1-8.1,6.1-11.9,6.1
					c-3.6,0-5.4-2-5.4-6c0-1.4,0.2-3.3,0.7-5.7L312.6,109.2z"/>
				<path class="st0" d="M351.9,132.7l-0.5,2.5c-6.7,4.7-12.5,7.1-17.3,7.1c-3,0-5.5-1.1-7.3-3.2c-1.9-2.1-2.8-4.8-2.8-8.2
					c0-6,2.3-11.6,6.9-16.9s9.5-7.9,14.7-7.9c1.9,0,3.4,0.6,4.6,1.9s1.8,2.9,1.8,5c0,4.1-2.1,7.6-6.2,10.5
					c-4.2,2.9-9.1,4.4-14.9,4.4v1.4c0,6.2,2.3,9.3,6.8,9.3C341.5,138.6,346.3,136.6,351.9,132.7z M330.8,125.9
					c4.8-0.4,8.5-1.6,11.1-3.7c2.7-2.1,4-4.7,4-8c0-3.2-1.2-4.9-3.5-4.9c-2.5,0-5,1.7-7.4,5.1C332.7,117.8,331.3,121.6,330.8,125.9z
					"/>
			</g>
			<g>
				<path class="st0" d="M448.2,124.2h-0.6c-2.4,5.3-5.3,9.7-8.7,13c-3.4,3.4-6.5,5-9.5,5c-4.5,0-6.7-2.8-6.7-8.4
					c0-6.2,2.5-12.2,7.4-18.1c5.1-6.1,11.3-9.2,18.7-9.2c3,0,6.2,0.1,9.5,0.4l-2.3,9.4l-3.1,15.7c-0.5,2.5-0.7,4.1-0.7,4.8
					c0,1.3,0.6,2,1.9,2c2.1,0,5.3-2.3,9.5-7l-0.6,3c-4.7,5-8.8,7.5-12.5,7.5c-3.1,0-4.6-1.6-4.6-4.8c0-1.1,0.3-2.9,0.8-5.4
					L448.2,124.2z M450.7,111.4c-2.7-1.2-5.3-1.8-7.9-1.8c-3.9,0-6.9,2.4-9.3,7.3c-2.7,5.8-4.1,11-4.1,15.6c0,3.3,1,5,2.9,5
					c1.8,0,4.4-1.9,7.9-5.7c3.4-3.8,6.4-8.2,9-13.1L450.7,111.4z"/>
				<path class="st0" d="M461.1,141.8l2.4-9.8l4.4-22c1.5-7.7,4.4-13.7,8.6-17.9c4.2-4.3,9.4-6.4,15.5-6.4c2.1,0,4,0.2,5.7,0.7
					l-4.4,4.6c-2.5-1.1-4.6-1.7-6.4-1.7c-2.8,0-5.1,1-7,2.9c-1.1,1.1-1.9,2.5-2.5,4.2s-1.5,5.2-2.7,10.5l-3.2,13.9h0.4
					c2-4.4,4.6-7.9,7.9-10.6s6.5-4.1,9.8-4.1c3.6,0,5.4,1.7,5.4,5.2c0,3.6-1.5,6.6-4.4,9.1c-2.9,2.4-7.1,4.1-12.5,5
					c6,8.4,10.5,12.5,13.4,12.5c1.8,0,4.1-1.3,6.9-3.9l-0.4,2.3c-4.2,3.9-7.6,5.9-10.1,5.9c-2,0-4.1-1-6.2-3s-5.6-6.4-10.7-13.3
					l-3.1,15.5L461.1,141.8z M471.3,124.2l-0.1,0.4h1.1c4.5,0,8.3-1.2,11.6-3.6s4.9-5.3,4.9-8.6c0-2.1-0.8-3.1-2.5-3.1
					C482.6,109.3,477.7,114.2,471.3,124.2z"/>
			</g>
			<g>
				<path class="st0" d="M198.7,142.4l0.7-22.8c0-13.3-1.4-23.4-4.3-30.3c-2.9-6.9-7.2-10.3-12.8-10.3c-4.6,0-9,2.8-13.1,8.4l-1.7-1
					c6.4-8,12.5-12.1,18.2-12.1c7.3,0,12.8,4.2,16.5,12.5c3.2,7.1,4.8,18.7,4.8,34.7l0.1,4.7l19.6-39.9l3.7-1
					c0.4,3.9,0.9,7.9,1.6,11.9l0.8,4.8c1,6.3,2,15.2,2.9,26.7l8.2-16.1c6.3-12.5,9.5-20.4,9.5-23.6c0-1.3-1.4-2-4.3-2h-1.4l0.5-2.3
					h16l-0.5,2.3h-3.5l-28.1,54.3l-3.9,1l0.1-4.7c0-14.5-1.3-27.8-3.9-39.9l-21.7,43.6L198.7,142.4z"/>
			</g>
			<g>
				<path class="st0" d="M390.9,142.9c-6.3,0-11.3-2-14.9-5.9c-3.7-3.9-5.5-9.2-5.5-15.9c0-10,3.5-18.8,10.4-26.4
					c6.9-7.6,14.9-11.4,24.1-11.4c6.2,0,11.2,1.9,14.8,5.8c3.6,3.8,5.5,9.1,5.5,15.6c0,10.5-3.4,19.4-10.1,26.9
					C408.3,139.1,400.3,142.9,390.9,142.9z M392.4,140.3c6.6,0,12.3-3.5,17.1-10.5c4.7-7,7.1-15.4,7.1-25.3c0-12.5-4.3-18.7-13-18.7
					c-6.6,0-12.3,3.5-17.1,10.4c-4.8,6.9-7.2,15.3-7.2,25C379.3,133.9,383.7,140.3,392.4,140.3z"/>
			</g>
		</g>
	</g>
	<g>
		<g>
			<path class="st0" d="M35.4,263.3l2.4-2.4L38,261c0.1,0,0.4,0,0.9,0c1.2,0,2.1-0.4,2.7-1.3c0.6-0.9,1.1-2.5,1.6-5l2.6-13h-4.1
				c-4.2,0-6.2,1.6-6.2,4.9c0,0.4,0,0.9,0.1,1.4l-3.4,1.6c0.5-3.2,1.8-5.7,4.1-7.5c2.3-1.9,5.2-2.8,8.7-2.8h7c3.1,0,5.2-0.2,6.2-0.6
				c1-0.4,1.7-1.3,2-2.7l2.4-1c-0.8,2-2.2,3.6-4.4,4.9c-2.2,1.2-4.6,1.9-7.4,1.9h-1.6L47,253c-0.4,2-1,3.6-1.8,4.8
				c-0.8,1.2-2,2.3-3.7,3.4l6.3,0.1l-2.3,2.4L35.4,263.3z"/>
			<path class="st0" d="M54,263.5l1.2-5l2.2-11.2c0.8-3.9,2.2-7,4.4-9.1c2.2-2.2,4.8-3.3,7.9-3.3c1.1,0,2,0.1,2.9,0.3l-2.2,2.3
				c-1.3-0.6-2.3-0.9-3.2-0.9c-1.7,0-3,0.6-3.9,1.9c-0.9,1.2-1.6,3.6-2.3,7.1l-1.7,8.8h0.3c1.3-2.8,2.9-5,4.6-6.7
				c1.7-1.7,3.3-2.5,4.7-2.5c1.8,0,2.7,1,2.7,2.9c0,0.6-0.1,1.4-0.3,2.3l-1.6,7.9c-0.2,1.2-0.4,2.1-0.4,2.4c0,0.7,0.3,1,1,1
				c1.1,0,2.7-1.2,4.8-3.6l-0.3,1.5c-2.4,2.5-4.5,3.8-6.4,3.8c-1.6,0-2.3-0.8-2.3-2.4c0-0.5,0.1-1.5,0.4-2.8l1.6-7.9
				c0.1-0.6,0.2-1.1,0.2-1.6c0-0.9-0.3-1.3-1-1.3c-2.1,0-4.9,3.3-8.6,9.8l-1.2,5.8L54,263.5z"/>
			<path class="st0" d="M89.1,258.8l-0.2,1.2c-3.4,2.4-6.4,3.6-8.8,3.6c-1.5,0-2.8-0.5-3.7-1.6c-1-1.1-1.4-2.5-1.4-4.2
				c0-3,1.2-5.9,3.5-8.6c2.3-2.7,4.8-4,7.5-4c1,0,1.7,0.3,2.3,1c0.6,0.6,0.9,1.5,0.9,2.5c0,2.1-1.1,3.8-3.2,5.3s-4.6,2.2-7.6,2.2
				v0.7c0,3.2,1.2,4.7,3.5,4.7C83.7,261.8,86.2,260.8,89.1,258.8z M78.3,255.4c2.4-0.2,4.3-0.8,5.7-1.9c1.4-1.1,2-2.4,2-4.1
				c0-1.7-0.6-2.5-1.8-2.5c-1.3,0-2.5,0.9-3.8,2.6C79.3,251.2,78.6,253.2,78.3,255.4z"/>
			<path class="st0" d="M100.7,263.3l2.4-2.4h0.3h0.7c1.3,0,2.2-0.4,2.8-1.3c0.6-0.8,1.1-2.6,1.7-5.1l2.8-13.9c-2.2,0-4,0.6-5.4,1.8
				s-2.1,2.7-2.1,4.7v0.4l-3.2,1.5c0.3-3.4,1.6-5.8,3.9-7.3s5.8-2.3,10.6-2.3c3.4,0,5.9,0.4,7.3,1.1c1.5,0.7,2.2,2,2.2,3.7
				c0,1.4-0.5,2.8-1.5,4.2s-2.3,2.5-3.8,3.3c-1.8,0.9-3.8,1.3-6,1.3H113l0.6-1h0.3c2.1,0,3.8-0.7,5.2-2c1.4-1.4,2.1-3.1,2.1-5.1
				c0-3.1-2.2-4.6-6.5-4.6l-2.6,13.1c-0.6,3.3-2.4,5.9-5.4,7.7l6.2,0.1l-2.2,2.4L100.7,263.3z"/>
			<path class="st0" d="M138.1,254.5h-0.3c-3.1,6.1-6.1,9.2-9,9.2c-1.7,0-2.6-1-2.6-3.1c0-0.6,0.1-1.3,0.3-2.2l1.6-8
				c0.2-1.2,0.4-2.1,0.4-2.4c0-0.7-0.3-1-1-1c-1.1,0-2.7,1.2-4.8,3.5l0.3-1.5c2.4-2.5,4.5-3.8,6.4-3.8c1.6,0,2.4,0.8,2.4,2.4
				c0,0.5-0.1,1.5-0.4,2.8l-1.6,8c-0.1,0.7-0.2,1.2-0.2,1.5c0,0.9,0.3,1.3,1,1.3c0.8,0,2-1,3.7-2.9s3.2-4.2,4.5-6.8l1.2-5.8l3.4-0.2
				l-1.2,5l-1.6,8c-0.2,1.2-0.4,2.1-0.4,2.4c0,0.7,0.3,1,1,1c1.1,0,2.7-1.2,4.8-3.6l-0.3,1.5c-2.4,2.5-4.5,3.8-6.4,3.8
				c-1.6,0-2.4-0.8-2.4-2.4c0-0.6,0.1-1.5,0.4-2.8L138.1,254.5z"/>
			<path class="st0" d="M147,263.5l1.2-5l1.6-7.9c0.2-0.8,0.2-1.5,0.2-2.1c0-0.9-0.3-1.4-1-1.4c-1.1,0-2.8,1.2-4.9,3.7l0.3-1.4
				c2.5-2.7,4.7-4,6.5-4c1.6,0,2.3,0.9,2.3,2.7c0,0.8-0.1,1.7-0.3,2.6l-0.8,3.9h0.2c1.3-2.7,2.8-4.9,4.6-6.6
				c1.8-1.7,3.4-2.6,4.8-2.6c0.8,0,1.4,0.2,2,0.5l-2.2,2.9c-0.6-0.4-1.2-0.6-1.6-0.6c-2.1,0-4.9,3.1-8.4,9.3l-1.2,5.9L147,263.5z"/>
			<path class="st0" d="M152.6,273.8l2.2-2.3c1.1,0.5,2.2,0.8,3.4,0.8c2.8,0,4.6-2.3,5.5-6.8l2.5-12.6c0.3-1.6,0.4-2.7,0.4-3.2
				c0-0.9-0.3-1.4-1-1.4c-0.5,0-1.4,0.2-2.6,0.6l0.2-1l7.9-2.6l-1.2,5.2l-0.8,4h0.3c1.2-2.7,2.7-4.9,4.4-6.6
				c1.7-1.7,3.3-2.6,4.8-2.6c2.3,0,3.5,1.4,3.5,4.3c0,3.3-1.3,6.5-3.9,9.5c-2.6,3-5.4,4.5-8.4,4.5c-0.3,0-0.9-0.1-1.8-0.2
				c-0.1,0-0.3,0-0.6-0.1c-0.9,3.5-2.3,6.2-4.4,8c-2.1,1.9-4.7,2.8-7.8,2.8C154.3,274,153.5,274,152.6,273.8z M167.8,261
				c1.4,0.6,2.7,0.9,4,0.9c2,0,3.5-1.2,4.7-3.7c1.4-2.9,2.1-5.6,2.1-7.9c0-1.7-0.5-2.5-1.5-2.5c-0.9,0-2.2,1-4,2.9
				c-1.7,1.9-3.3,4.2-4.6,6.7L167.8,261z"/>
			<path class="st0" d="M192.9,258.3l-0.3,1.5c-2.6,2.6-4.7,3.9-6.6,3.9c-1.5,0-2.3-0.8-2.3-2.5c0-0.7,0.1-1.6,0.3-2.7l2.2-11.2
				c0.8-3.9,2.2-7,4.4-9.1c2.2-2.2,4.8-3.3,7.9-3.3c1.1,0,2.1,0.1,2.9,0.3l-2.2,2.3c-1.3-0.6-2.3-0.9-3.2-0.9c-1.7,0-3,0.6-3.9,1.9
				s-1.6,3.6-2.3,7.1l-2.5,12.8c-0.2,1.2-0.4,2.1-0.4,2.4c0,0.7,0.3,1,1,1s2.1-1,4.2-2.9C192.2,258.9,192.5,258.6,192.9,258.3z"/>
			<path class="st0" d="M206.9,258.8l-0.2,1.2c-3.4,2.4-6.4,3.6-8.8,3.6c-1.5,0-2.8-0.5-3.7-1.6c-1-1.1-1.4-2.5-1.4-4.2
				c0-3,1.2-5.9,3.5-8.6c2.3-2.7,4.8-4,7.5-4c1,0,1.7,0.3,2.3,1c0.6,0.6,0.9,1.5,0.9,2.5c0,2.1-1.1,3.8-3.2,5.3
				c-2.1,1.5-4.6,2.2-7.6,2.2v0.7c0,3.2,1.2,4.7,3.5,4.7C201.6,261.8,204,260.8,206.9,258.8z M196.2,255.4c2.4-0.2,4.3-0.8,5.7-1.9
				c1.4-1.1,2-2.4,2-4.1c0-1.7-0.6-2.5-1.8-2.5c-1.3,0-2.5,0.9-3.8,2.6C197.1,251.2,196.4,253.2,196.2,255.4z"/>
			<path class="st0" d="M230.1,263.7l0.3-9.6c0-5.6-0.6-9.9-1.8-12.8c-1.2-2.9-3-4.3-5.4-4.3c-1.9,0-3.8,1.2-5.5,3.5l-0.7-0.4
				c2.7-3.4,5.3-5.1,7.7-5.1c3.1,0,5.4,1.8,7,5.3c1.4,3,2,7.9,2,14.7v2l8.3-16.9l1.6-0.4c0.2,1.7,0.4,3.3,0.7,5l0.3,2
				c0.4,2.7,0.8,6.4,1.2,11.3l3.5-6.8c2.7-5.3,4-8.6,4-10c0-0.6-0.6-0.8-1.8-0.8h-0.6l0.2-1h6.8l-0.2,1h-1.5l-11.9,23l-1.7,0.4v-2
				c0-6.1-0.6-11.8-1.7-16.9l-9.2,18.4L230.1,263.7z"/>
			<path class="st0" d="M264.3,263.9c-2.7,0-4.8-0.8-6.3-2.5s-2.3-3.9-2.3-6.7c0-4.2,1.5-8,4.4-11.2s6.3-4.8,10.2-4.8
				c2.6,0,4.7,0.8,6.3,2.4s2.3,3.8,2.3,6.6c0,4.4-1.4,8.2-4.3,11.4C271.7,262.3,268.3,263.9,264.3,263.9z M264.9,262.8
				c2.8,0,5.2-1.5,7.2-4.5s3-6.5,3-10.7c0-5.3-1.8-7.9-5.5-7.9c-2.8,0-5.2,1.5-7.2,4.4s-3,6.5-3,10.6
				C259.4,260.1,261.2,262.8,264.9,262.8z"/>
			<path class="st0" d="M276.5,263.3l2.3-2.4h0.9c1.3,0,2.2-0.4,2.8-1.1s1.1-2.2,1.5-4.3l1.7-8.3c0.5-2.5,1.6-4.5,3.4-6.1
				c1.7-1.6,3.7-2.4,6-2.4c1,0,2.1,0.4,3.5,1.1l-0.8,4h-1c0-0.3,0-0.5,0-0.7c0-2-1-3-3.1-3c-2,0-3.4,1.7-4.1,5.2l-1.5,7.5
				c-0.4,2.2-1.1,4-1.9,5.2s-2,2.3-3.7,3.2l9.1,0.1c2.6,0,4.9-0.6,6.9-1.8l-0.2,1.2c-1.5,1.3-2.6,2.2-3.4,2.6s-1.8,0.6-3,0.6
				L276.5,263.3z"/>
			<path class="st0" d="M308.5,252.2l1.1-1.3h1.7l2-10.3c-2.2,0-4,0.6-5.4,1.8s-2.1,2.8-2.1,4.7v0.4l-3.2,1.5
				c0.3-3.3,1.6-5.7,3.9-7.3c2.3-1.5,5.8-2.3,10.4-2.3h9.3l-1.5,4.6h-1c0.1-0.4,0.2-0.9,0.2-1.3c0-1.4-2.2-2.1-6.6-2.1h-0.7
				l-2.1,10.4h7.1l-1.6,1.7c-1.7-0.2-3.4-0.4-4.9-0.4h-0.8l-0.9,4.7c-0.8,4-2.3,7.2-4.6,9.6c-2.3,2.4-4.9,3.6-7.9,3.6
				c-1.6,0-3.1-0.6-4.3-1.8l2.4-2.4c0.9,1.8,2.2,2.7,4.1,2.7c1.7,0,3.1-0.8,4.1-2.3c1-1.6,1.9-4.3,2.7-8.3l1.1-5.7h-2.5V252.2z"/>
			<path class="st0" d="M346.4,263.7l0.1-4.2c0-8.4-0.8-14.2-2.3-17.4c-1.6-3.4-3.6-5.1-5.9-5.1c-2.1,0-4,1.3-5.6,4l-0.8-0.4
				c2.4-3.7,5-5.6,7.9-5.6c6.8,0,10.2,7.8,10.2,23.3l5.2-8.1c3.1-4.9,4.7-8,4.7-9.2c0-0.4-0.5-0.6-1.5-0.6h-1.3l0.2-1h7l-0.2,1h-1.3
				l-14.6,23L346.4,263.7z"/>
			<path class="st0" d="M372.1,258.4l-0.3,1.5c-2.4,2.5-4.5,3.8-6.4,3.8c-1.6,0-2.3-0.8-2.3-2.4c0-0.6,0.1-1.5,0.4-2.7l1.1-5.6
				c0.3-1.6,0.5-2.7,0.5-3.2c0-0.9-0.4-1.4-1.1-1.4c-0.5,0-1.4,0.2-2.6,0.6l0.2-1l7.9-2.6l-1.2,5.2l-1.6,8c-0.2,1.3-0.4,2.1-0.4,2.4
				c0,0.7,0.3,1.1,1,1.1C368.4,261.9,370,260.7,372.1,258.4z M366.2,242.5l1.1-2.2l4.6-3l-1.4,3L366.2,242.5z"/>
			<path class="st0" d="M373,263.5l1.2-5l1.6-8c0.2-1.2,0.4-2.1,0.4-2.4c0-0.7-0.3-1-1-1c-1.1,0-2.7,1.2-4.8,3.6l0.3-1.5
				c2.4-2.5,4.5-3.8,6.4-3.8c1.6,0,2.3,0.8,2.3,2.4c0,0.6-0.1,1.5-0.4,2.8l-0.8,4h0.2c1.3-2.8,2.9-5,4.6-6.7s3.3-2.5,4.8-2.5
				c1.8,0,2.7,1,2.7,2.9c0,0.6-0.1,1.4-0.3,2.3l-1.6,7.9c-0.2,1.3-0.4,2.1-0.4,2.4c0,0.7,0.3,1,1,1c1.1,0,2.7-1.2,4.8-3.6l-0.3,1.5
				c-2.4,2.5-4.5,3.8-6.4,3.8c-1.6,0-2.3-0.8-2.3-2.4c0-0.5,0.1-1.5,0.4-2.8l1.6-7.9c0.1-0.6,0.2-1.1,0.2-1.6c0-0.9-0.3-1.3-1-1.3
				c-2.1,0-4.9,3.3-8.6,9.8l-1.2,5.8L373,263.5z"/>
			<path class="st0" d="M408,258.8l-0.2,1.2c-3.4,2.4-6.4,3.6-8.8,3.6c-1.5,0-2.8-0.5-3.7-1.6c-1-1.1-1.4-2.5-1.4-4.2
				c0-3,1.2-5.9,3.5-8.6c2.3-2.7,4.8-4,7.5-4c1,0,1.7,0.3,2.3,1s0.9,1.5,0.9,2.5c0,2.1-1.1,3.8-3.2,5.3s-4.6,2.2-7.6,2.2v0.7
				c0,3.2,1.2,4.7,3.5,4.7C402.7,261.8,405.1,260.8,408,258.8z M397.3,255.4c2.4-0.2,4.3-0.8,5.7-1.9c1.4-1.1,2-2.4,2-4.1
				c0-1.7-0.6-2.5-1.8-2.5c-1.3,0-2.5,0.9-3.8,2.6C398.2,251.2,397.5,253.2,397.3,255.4z"/>
			<path class="st0" d="M410.8,273.6l2.2-2.3c1.1,0.6,2.2,0.9,3.4,0.9c1.5,0,2.7-0.5,3.5-1.6s1.6-3,2.3-5.8l2.5-10.4h-0.2
				c-1.3,2.6-2.6,4.7-3.9,6.3c-1.3,1.6-2.3,2.5-3.1,2.5c-0.8,0-1.4-0.4-1.8-1.3s-0.7-2.4-1-4.7l-0.8-6.3c-0.3-2.3-0.8-3.5-1.5-3.5
				s-1.8,0.9-3.3,2.8l0.3-1.7c1.7-2.2,3.3-3.4,4.8-3.4c0.9,0,1.5,0.4,1.8,1.2c0.4,0.8,0.7,2.4,1,4.9l0.7,5.4
				c0.2,1.9,0.7,2.9,1.2,2.9c0.7,0,1.6-0.9,2.8-2.8c0.2-0.3,1.4-2.3,3.6-6l1.2-5.2l3.5-0.2l-1.4,5.1l-2.8,11.5
				c-1,3.9-2.5,6.9-4.6,8.9c-2.1,2.1-4.7,3.1-7.7,3.1C412.6,274,411.7,273.9,410.8,273.6z"/>
			<path class="st0" d="M444.1,254.5h-0.3c-1.2,2.7-2.7,4.9-4.4,6.6c-1.7,1.7-3.3,2.6-4.8,2.6c-2.3,0-3.4-1.4-3.4-4.3
				c0-3.1,1.3-6.2,3.8-9.2c2.6-3.1,5.8-4.7,9.5-4.7c1.5,0,3.2,0.1,4.8,0.2l-1.2,4.8l-1.6,8c-0.2,1.3-0.4,2.1-0.4,2.4
				c0,0.7,0.3,1,1,1c1.1,0,2.7-1.2,4.8-3.6l-0.3,1.5c-2.4,2.5-4.5,3.8-6.4,3.8c-1.6,0-2.4-0.8-2.4-2.4c0-0.5,0.1-1.5,0.4-2.8
				L444.1,254.5z M445.4,248c-1.4-0.6-2.7-0.9-4-0.9c-2,0-3.5,1.2-4.7,3.7c-1.4,2.9-2.1,5.6-2.1,7.9c0,1.7,0.5,2.5,1.5,2.5
				c0.9,0,2.3-1,4-2.9s3.3-4.2,4.6-6.7L445.4,248z"/>
			<path class="st0" d="M453.3,263.5l1.2-5l1.6-7.9c0.2-0.8,0.2-1.5,0.2-2.1c0-0.9-0.3-1.4-1-1.4c-1.1,0-2.8,1.2-4.9,3.7l0.3-1.4
				c2.5-2.7,4.7-4,6.5-4c1.6,0,2.3,0.9,2.3,2.7c0,0.8-0.1,1.7-0.3,2.6l-0.8,3.9h0.2c1.3-2.7,2.8-4.9,4.6-6.6
				c1.8-1.7,3.4-2.6,4.8-2.6c0.8,0,1.4,0.2,2,0.5l-2.2,2.9c-0.6-0.4-1.2-0.6-1.6-0.6c-2.1,0-4.9,3.1-8.4,9.3l-1.2,5.9L453.3,263.5z"
				/>
			<path class="st0" d="M481.7,254.5h-0.3c-1.2,2.7-2.7,4.9-4.4,6.6s-3.3,2.6-4.8,2.6c-2.3,0-3.4-1.4-3.4-4.3c0-1.9,0.6-4,1.7-6.1
				s2.6-3.9,4.3-5.4c1.2-1,2.4-1.6,3.6-1.9c1.2-0.3,2.9-0.5,5.2-0.5c0.6-2.1,1.3-3.8,2-4.9c0.7-1.1,1.7-2.2,2.9-3.2
				c2.1-1.7,4.5-2.5,7.1-2.5c1.1,0,2,0.1,2.9,0.3l-2.2,2.3c-1.3-0.6-2.4-0.8-3.3-0.8c-1.7,0-3,0.6-3.9,1.9c-0.9,1.3-1.7,3.6-2.3,7.1
				l-2.5,12.8c-0.3,1.3-0.4,2.1-0.4,2.4c0,0.7,0.3,1.1,1,1.1c1.1,0,2.7-1.2,4.8-3.6l-0.3,1.5c-2.4,2.5-4.5,3.8-6.3,3.8
				c-1.6,0-2.3-0.8-2.3-2.4c0-0.5,0.1-1.4,0.4-2.8L481.7,254.5z M483,248c-1.3-0.6-2.7-0.9-4-0.9c-2,0-3.5,1.2-4.7,3.7
				c-1.4,2.9-2.1,5.6-2.1,7.9c0,1.7,0.5,2.5,1.5,2.5c0.9,0,2.3-1,4-2.9c1.7-2,3.3-4.2,4.6-6.7L483,248z"/>
		</g>
		<g>
			<path class="st0" d="M13.4,261.1c-2.3,1.9-4.6,2.8-6.8,2.8c-1.9,0-3.4-0.6-4.7-1.8c-1.2-1.2-1.9-2.7-1.9-4.6
				c0-3.5,2.5-6.2,7.6-8.3c-0.6-1.6-0.9-2.9-0.9-3.8c0-1.7,0.7-3.2,2.2-4.6c1.4-1.4,3.1-2,4.9-2c1.3,0,2.3,0.4,3.1,1.1
				c0.8,0.7,1.2,1.7,1.2,2.9c0,3-2.4,5.2-7.2,6.7c1.4,3.7,2.9,6.7,4.6,9c1.7-1.7,2.7-3.7,2.9-5.9h-3.3l1.5-2.4h4.3
				c2.1,0,3.8-0.4,4.9-1.1l-1.3,2c-1.3,1-2.5,1.5-3.6,1.5h-0.5c-0.8,2.6-2.3,4.8-4.4,6.7c1.5,1.9,2.8,2.9,3.8,2.9
				c0.8,0,2-0.5,3.4-1.4c0.1-0.1,0.3-0.2,0.5-0.3l-0.2,1.2c-1.9,1.6-3.7,2.3-5.4,2.3c-1,0-1.8-0.2-2.4-0.5
				C15.2,263,14.4,262.2,13.4,261.1z M12.8,260.2c-1.9-2.8-3.6-6.2-5-10.2c-3,1.4-4.5,3.5-4.5,6.4c0,1.5,0.5,2.8,1.4,3.8
				s2.1,1.5,3.5,1.5C9.6,261.9,11.1,261.3,12.8,260.2z M10.6,248.4c3.2-1.3,4.8-3.2,4.8-5.9c0-1.9-0.8-2.9-2.3-2.9
				c-1,0-1.8,0.4-2.4,1.2c-0.6,0.8-0.9,1.9-0.9,3.2C9.8,245.2,10,246.7,10.6,248.4z"/>
		</g>
	</g>
</g>
</svg>
